<?xml version="1.0" encoding="utf-8"?>
<!-- Generator: Adobe Illustrator 26.2.1, SVG Export Plug-In . SVG Version: 6.00 Build 0)  -->
<svg version="1.1" id="Camada_1" xmlns="http://www.w3.org/2000/svg" xmlns:xlink="http://www.w3.org/1999/xlink" x="0px" y="0px"
	 viewBox="0 0 1920 625" style="enable-background:new 0 0 1920 625;" xml:space="preserve">
<style type="text/css">
	.st0{fill:#049DF6;}
	.st1{fill:url(#SVGID_1_);}
	.st2{fill:#1B2449;}
	.st3{fill:url(#SVGID_00000061439887594649443570000016423328899016734143_);}
</style>
<g>
	<path class="st0" d="M222.37,584.05c-6.44,0-12.42-1.16-17.91-3.48c-5.5-2.32-10.8-5.83-15.91-10.55l5.54-6.6
		c4.95,4.64,9.61,7.94,13.97,9.9c4.36,1.97,9.21,2.95,14.56,2.95c4.24,0,8.03-0.73,11.37-2.18c3.34-1.45,5.95-3.44,7.84-5.95
		c1.89-2.51,2.83-5.38,2.83-8.6c0-4.16-1.38-7.33-4.12-9.49c-2.75-2.16-7.5-3.83-14.26-5.01l-13.32-2.24
		c-7.54-1.34-13.06-3.63-16.56-6.89c-3.5-3.26-5.24-7.64-5.24-13.14c0-4.64,1.2-8.74,3.59-12.32c2.4-3.57,5.72-6.38,9.96-8.43
		c4.24-2.04,9.15-3.06,14.73-3.06c6.13,0,11.82,0.85,17.09,2.53c5.26,1.69,10.45,4.34,15.56,7.96l-4.71,7.07
		c-4.24-3.22-8.72-5.68-13.44-7.37c-4.71-1.69-9.51-2.53-14.38-2.53c-3.85,0-7.25,0.67-10.19,2c-2.95,1.34-5.26,3.14-6.95,5.42
		c-1.69,2.28-2.53,4.87-2.53,7.78c0,3.62,1.22,6.44,3.65,8.49c2.43,2.04,6.4,3.5,11.9,4.36l13.2,2.24c8.8,1.57,15.18,4.11,19.15,7.6
		c3.97,3.5,5.95,8.35,5.95,14.56c0,4.79-1.36,9.08-4.07,12.85c-2.71,3.77-6.42,6.74-11.14,8.9
		C233.81,582.97,228.42,584.05,222.37,584.05z"/>
	<path class="st0" d="M290.26,582.75v-82.5h9.08v82.5H290.26z"/>
	<path class="st0" d="M368.04,584.05c-6.44,0-12.42-1.16-17.91-3.48c-5.5-2.32-10.8-5.83-15.91-10.55l5.54-6.6
		c4.95,4.64,9.61,7.94,13.97,9.9c4.36,1.97,9.21,2.95,14.56,2.95c4.24,0,8.03-0.73,11.37-2.18c3.34-1.45,5.95-3.44,7.84-5.95
		c1.89-2.51,2.83-5.38,2.83-8.6c0-4.16-1.38-7.33-4.12-9.49c-2.75-2.16-7.5-3.83-14.26-5.01l-13.32-2.24
		c-7.54-1.34-13.06-3.63-16.56-6.89c-3.5-3.26-5.24-7.64-5.24-13.14c0-4.64,1.2-8.74,3.59-12.32c2.4-3.57,5.72-6.38,9.96-8.43
		c4.24-2.04,9.15-3.06,14.73-3.06c6.13,0,11.82,0.85,17.09,2.53c5.26,1.69,10.45,4.34,15.56,7.96l-4.71,7.07
		c-4.24-3.22-8.72-5.68-13.44-7.37c-4.71-1.69-9.51-2.53-14.38-2.53c-3.85,0-7.25,0.67-10.19,2c-2.95,1.34-5.27,3.14-6.95,5.42
		c-1.69,2.28-2.53,4.87-2.53,7.78c0,3.62,1.22,6.44,3.65,8.49c2.43,2.04,6.4,3.5,11.9,4.36l13.2,2.24c8.8,1.57,15.18,4.11,19.15,7.6
		c3.97,3.5,5.95,8.35,5.95,14.56c0,4.79-1.36,9.08-4.07,12.85c-2.71,3.77-6.42,6.74-11.14,8.9S374.09,584.05,368.04,584.05z"/>
	<path class="st0" d="M455.61,582.75v-74.49h-28.52v-8.01h66.12v8.01h-28.52v74.49H455.61z"/>
	<path class="st0" d="M528.21,582.75v-82.5h56.34v8.01h-47.26v28.88h32.76v7.9h-32.76v29.7h47.73v8.01H528.21z"/>
	<path class="st0" d="M622.38,582.75v-82.5h12.61l27.58,58.69l27.58-58.69h12.61v82.5h-8.6v-71.78l-31.59,65.88l-31.7-66.12v72.01
		H622.38z"/>
	<path class="st0" d="M735.52,582.75l32.65-82.5h10.84l32.18,82.5h-9.78l-9.78-25.93h-36.77l-9.78,25.93H735.52z M757.68,549.63
		h31.23l-15.68-41.13L757.68,549.63z"/>
	<path class="st0" d="M872.35,584.05c-6.44,0-12.42-1.16-17.91-3.48c-5.5-2.32-10.8-5.83-15.91-10.55l5.54-6.6
		c4.95,4.64,9.61,7.94,13.97,9.9c4.36,1.97,9.21,2.95,14.56,2.95c4.24,0,8.03-0.73,11.37-2.18c3.34-1.45,5.95-3.44,7.84-5.95
		c1.89-2.51,2.83-5.38,2.83-8.6c0-4.16-1.38-7.33-4.12-9.49c-2.75-2.16-7.5-3.83-14.26-5.01l-13.32-2.24
		c-7.54-1.34-13.06-3.63-16.56-6.89c-3.5-3.26-5.24-7.64-5.24-13.14c0-4.64,1.2-8.74,3.59-12.32c2.4-3.57,5.72-6.38,9.96-8.43
		c4.24-2.04,9.15-3.06,14.73-3.06c6.13,0,11.82,0.85,17.09,2.53c5.26,1.69,10.45,4.34,15.56,7.96l-4.71,7.07
		c-4.24-3.22-8.72-5.68-13.44-7.37c-4.71-1.69-9.51-2.53-14.38-2.53c-3.85,0-7.25,0.67-10.19,2c-2.95,1.34-5.27,3.14-6.95,5.42
		c-1.69,2.28-2.53,4.87-2.53,7.78c0,3.62,1.22,6.44,3.65,8.49c2.43,2.04,6.4,3.5,11.9,4.36l13.2,2.24c8.8,1.57,15.18,4.11,19.15,7.6
		c3.97,3.5,5.95,8.35,5.95,14.56c0,4.79-1.36,9.08-4.07,12.85c-2.71,3.77-6.42,6.74-11.14,8.9S878.4,584.05,872.35,584.05z"/>
	<path class="st0" d="M989.03,582.75v-82.5h27.34c6.05,0,11.61,1.04,16.68,3.12c5.07,2.08,9.43,4.99,13.08,8.72
		c3.65,3.73,6.48,8.09,8.49,13.08c2,4.99,3.01,10.43,3.01,16.32s-1,11.33-3.01,16.32c-2,4.99-4.83,9.35-8.49,13.08
		c-3.65,3.73-8.01,6.64-13.08,8.72c-5.07,2.08-10.63,3.12-16.68,3.12H989.03z M998.11,574.62h18.86c5.97,0,11.31-1.45,16.03-4.36
		c4.71-2.91,8.47-6.85,11.26-11.84c2.79-4.99,4.18-10.63,4.18-16.91c0-6.29-1.4-11.92-4.18-16.91c-2.79-4.99-6.54-8.94-11.26-11.84
		c-4.71-2.91-10.06-4.36-16.03-4.36h-18.86V574.62z"/>
	<path class="st0" d="M1096.05,582.75v-82.5h56.34v8.01h-47.26v28.88h32.76v7.9h-32.76v29.7h47.73v8.01H1096.05z"/>
	<path class="st0" d="M1276.72,584.05c-5.89,0-11.35-1.1-16.38-3.3c-5.03-2.2-9.45-5.24-13.26-9.13c-3.81-3.89-6.78-8.41-8.9-13.55
		c-2.12-5.15-3.18-10.67-3.18-16.56s1.06-11.41,3.18-16.56c2.12-5.15,5.09-9.66,8.9-13.55c3.81-3.89,8.23-6.93,13.26-9.13
		c5.03-2.2,10.49-3.3,16.38-3.3c6.29,0,12.24,1.14,17.86,3.42c5.62,2.28,10.39,5.66,14.32,10.14l-6.13,6.13
		c-3.06-3.69-6.92-6.52-11.55-8.49c-4.64-1.96-9.47-2.95-14.5-2.95c-4.64,0-8.92,0.88-12.85,2.65c-3.93,1.77-7.37,4.2-10.31,7.31
		c-2.95,3.1-5.24,6.74-6.89,10.9c-1.65,4.17-2.47,8.64-2.47,13.44c0,4.79,0.82,9.27,2.47,13.44c1.65,4.17,3.95,7.8,6.89,10.9
		c2.95,3.1,6.38,5.54,10.31,7.31c3.93,1.77,8.21,2.65,12.85,2.65c5.5,0,10.43-1.22,14.79-3.65c4.36-2.43,7.9-5.79,10.61-10.08
		c2.71-4.28,4.3-9.09,4.77-14.44h-27.81v-8.01h37.01v3.65c0,5.74-0.98,11.06-2.95,15.97c-1.96,4.91-4.73,9.23-8.31,12.96
		c-3.58,3.73-7.76,6.64-12.55,8.72C1287.48,583,1282.3,584.05,1276.72,584.05z"/>
	<path class="st0" d="M1354.27,582.75v-82.5h56.34v8.01h-47.26v28.88h32.76v7.9h-32.76v29.7h47.73v8.01H1354.27z"/>
	<path class="st0" d="M1475.07,584.05c-6.44,0-12.42-1.16-17.91-3.48c-5.5-2.32-10.8-5.83-15.91-10.55l5.54-6.6
		c4.95,4.64,9.61,7.94,13.97,9.9c4.36,1.97,9.21,2.95,14.56,2.95c4.24,0,8.03-0.73,11.37-2.18c3.34-1.45,5.95-3.44,7.84-5.95
		c1.89-2.51,2.83-5.38,2.83-8.6c0-4.16-1.38-7.33-4.12-9.49c-2.75-2.16-7.5-3.83-14.26-5.01l-13.32-2.24
		c-7.54-1.34-13.06-3.63-16.56-6.89c-3.5-3.26-5.24-7.64-5.24-13.14c0-4.64,1.2-8.74,3.59-12.32c2.4-3.57,5.72-6.38,9.96-8.43
		c4.24-2.04,9.15-3.06,14.73-3.06c6.13,0,11.82,0.85,17.09,2.53c5.26,1.69,10.45,4.34,15.56,7.96l-4.71,7.07
		c-4.24-3.22-8.72-5.68-13.44-7.37c-4.71-1.69-9.51-2.53-14.38-2.53c-3.85,0-7.25,0.67-10.19,2c-2.95,1.34-5.27,3.14-6.95,5.42
		c-1.69,2.28-2.53,4.87-2.53,7.78c0,3.62,1.22,6.44,3.65,8.49c2.43,2.04,6.4,3.5,11.9,4.36l13.2,2.24c8.8,1.57,15.18,4.11,19.15,7.6
		c3.97,3.5,5.95,8.35,5.95,14.56c0,4.79-1.36,9.08-4.07,12.85c-2.71,3.77-6.42,6.74-11.14,8.9S1481.12,584.05,1475.07,584.05z"/>
	<path class="st0" d="M1562.64,582.75v-74.49h-28.52v-8.01h66.12v8.01h-28.52v74.49H1562.64z"/>
	<path class="st0" d="M1612.85,582.75l32.65-82.5h10.84l32.18,82.5h-9.78l-9.78-25.93h-36.77l-9.78,25.93H1612.85z M1636.77,489.41
		l-6.01-1.18c1.1-4.01,2.63-7.05,4.6-9.13c1.96-2.08,4.36-3.12,7.19-3.12c2.28,0,4.42,0.59,6.42,1.77c2,1.18,3.89,2.36,5.66,3.54
		c1.77,1.18,3.44,1.77,5.01,1.77c1.34,0,2.38-0.55,3.12-1.65c0.75-1.1,1.51-3.06,2.3-5.89l6.01,1.18c-1.02,4.01-2.5,7.05-4.42,9.13
		c-1.93,2.08-4.22,3.12-6.89,3.12c-2.2,0-4.28-0.59-6.25-1.77c-1.97-1.18-3.83-2.36-5.6-3.54c-1.77-1.18-3.48-1.77-5.13-1.77
		c-1.49,0-2.69,0.57-3.59,1.71C1638.29,484.71,1637.48,486.66,1636.77,489.41z M1635.01,549.63h31.23l-15.68-41.13L1635.01,549.63z"
		/>
	<path class="st0" d="M1754.99,584.05c-5.74,0-11.08-1.08-16.03-3.24c-4.95-2.16-9.29-5.19-13.02-9.08
		c-3.73-3.89-6.66-8.41-8.78-13.55c-2.12-5.15-3.18-10.71-3.18-16.68c0-5.97,1.06-11.53,3.18-16.68c2.12-5.15,5.05-9.66,8.78-13.55
		c3.73-3.89,8.07-6.91,13.02-9.08c4.95-2.16,10.29-3.24,16.03-3.24c5.73,0,11.08,1.08,16.03,3.24c4.95,2.16,9.29,5.19,13.02,9.08
		c3.73,3.89,6.66,8.41,8.78,13.55c2.12,5.15,3.18,10.71,3.18,16.68c0,5.97-1.06,11.53-3.18,16.68c-2.12,5.15-5.05,9.66-8.78,13.55
		c-3.73,3.89-8.07,6.91-13.02,9.08C1766.06,582.97,1760.72,584.05,1754.99,584.05z M1754.99,575.8c4.48,0,8.64-0.86,12.49-2.59
		c3.85-1.73,7.23-4.16,10.14-7.31c2.91-3.14,5.17-6.8,6.78-10.96c1.61-4.16,2.42-8.64,2.42-13.44c0-4.87-0.81-9.37-2.42-13.49
		c-1.61-4.13-3.87-7.76-6.78-10.9c-2.91-3.14-6.29-5.58-10.14-7.31c-3.85-1.73-8.01-2.59-12.49-2.59c-4.48,0-8.64,0.87-12.49,2.59
		c-3.85,1.73-7.23,4.17-10.14,7.31c-2.91,3.14-5.17,6.78-6.78,10.9c-1.61,4.12-2.42,8.59-2.42,13.38c0,4.87,0.8,9.39,2.42,13.55
		c1.61,4.17,3.87,7.82,6.78,10.96c2.91,3.14,6.29,5.58,10.14,7.31C1746.34,574.93,1750.51,575.8,1754.99,575.8z"/>
</g>
<g>
	
		<linearGradient id="SVGID_1_" gradientUnits="userSpaceOnUse" x1="-1385.5326" y1="2010.369" x2="-1170.4949" y2="1886.217" gradientTransform="matrix(-0.1125 0.9936 -0.9936 -0.1125 1977.8555 1587.0801)">
		<stop  offset="0" style="stop-color:#183562"/>
		<stop  offset="0.0372" style="stop-color:#154479"/>
		<stop  offset="0.1169" style="stop-color:#1061A6"/>
		<stop  offset="0.1938" style="stop-color:#0C78C9"/>
		<stop  offset="0.2659" style="stop-color:#0888E2"/>
		<stop  offset="0.3316" style="stop-color:#0792F1"/>
		<stop  offset="0.3849" style="stop-color:#0695F6"/>
		<stop  offset="0.633" style="stop-color:#1B9DC9;stop-opacity:0.5861"/>
		<stop  offset="0.8615" style="stop-color:#2CA4A6;stop-opacity:0.2048"/>
		<stop  offset="0.9842" style="stop-color:#32A699;stop-opacity:0"/>
	</linearGradient>
	<path class="st1" d="M139.18,61.86c64.23-44.99,153.08-29.35,198.08,34.88s29.35,153.08-34.88,198.08s-153.08,29.35-198.08-34.88
		S74.95,106.86,139.18,61.86z M273.94,254.22c41.84-29.31,52.03-87.2,22.72-129.04c-29.31-41.84-87.2-52.03-129.04-22.72
		s-52.03,87.2-22.72,129.04S232.1,283.54,273.94,254.22z"/>
</g>
<path class="st2" d="M462.6,244.39c-12.98-7.39-28.93-11.14-47.42-11.14c-15.4,0-29.55,2.88-42.06,8.55
	c-10.59,4.81-19.87,10.91-27.64,18.17l-1.01-22.64h-64.68v205.74h67.84V332.21c0-4.57,1.06-9.16,3.14-13.66
	c2.14-4.62,5.25-9.05,9.24-13.15c3.94-4.04,8.86-7.36,14.64-9.85c5.77-2.49,12.28-3.75,19.35-3.75c8.44,0,15.79,1.59,21.86,4.74
	c6.01,3.12,10.56,7.5,13.9,13.4c3.34,5.9,5.03,13.15,5.03,21.54v111.6H503V320.69c0-16.95-3.48-32.18-10.33-45.25
	C485.76,262.27,475.64,251.82,462.6,244.39z"/>
<path class="st2" d="M614.51,243.75c0-5.25,1.03-9.92,3.07-13.89c1.98-3.85,4.93-6.79,9.04-9.01c4.2-2.26,9.72-3.4,16.42-3.4
	c5.15,0,10.27,0.97,15.22,2.88c5.33,2.06,10.12,4.08,14.22,6.01l4.08,1.92l19.55-51.25l-2.87-1.83
	c-6.45-4.12-14.63-7.89-24.32-11.21c-9.81-3.36-21.52-5.06-34.8-5.06c-16.74,0-31.74,3.55-44.56,10.55
	c-12.9,7.04-23.02,16.89-30.07,29.3c-7.02,12.35-10.58,26.86-10.58,43.14v3.25h-38.29v57.43h38.29v140.51h65.61V302.57h66.9v-57.43
	h-66.9V243.75z"/>
<path class="st2" d="M864.1,255.79c-2.46-1.91-5.09-3.75-7.89-5.53c-8.1-5.15-17.6-9.31-28.22-12.38
	c-10.61-3.07-22.32-4.62-34.8-4.62c-21.68,0-40.99,4.62-57.41,13.72c-16.45,9.12-29.55,21.9-38.94,37.98
	c-9.38,16.07-14.14,34.72-14.14,55.45c0,20.23,4.63,38.56,13.75,54.49c9.13,15.96,22.05,28.68,38.39,37.81
	c16.29,9.11,35.55,13.73,57.24,13.73c11.75,0,23.04-1.62,33.56-4.83c10.5-3.2,19.93-7.5,28.01-12.76c3.33-2.17,6.45-4.46,9.33-6.85
	v21.09h68.58V237.34H864.1V255.79z M757.26,315.24c4.76-7.03,11.46-12.68,19.92-16.8c8.56-4.16,18.82-6.27,30.51-6.27
	c11.93,0,22.25,2.11,30.67,6.26c8.33,4.11,14.9,9.75,19.55,16.77c4.6,6.95,6.93,15.43,6.93,25.19c0,9.29-2.34,17.59-6.94,24.67
	c-4.63,7.12-11.19,12.74-19.49,16.72c-8.43,4.04-18.76,6.09-30.71,6.09c-11.71,0-21.99-2.05-30.55-6.1
	c-8.43-3.98-15.11-9.62-19.86-16.75c-4.71-7.07-7.1-15.35-7.1-24.63C750.18,330.64,752.56,322.17,757.26,315.24z"/>
<path class="st2" d="M1118.2,235.58c-7.09-1.54-14.7-2.33-22.64-2.33c-13.29,0-26.16,3.36-38.25,10
	c-10.49,5.75-19.9,13.28-28.04,22.42l-1.04-28.33h-64.71v205.74h68.21v-95.99c0-5.39,1.03-10.68,3.05-15.73
	c2-5.01,5.07-9.61,9.11-13.65c4.02-4.02,9.03-7.2,14.9-9.46c5.93-2.28,12.8-3.44,20.43-3.44c6.82,0,13.87,0.84,20.98,2.5
	c6.91,1.61,12.45,3.79,16.47,6.47l4.92,3.27l18.62-73.24l-2.93-1.53C1131.76,239.39,1125.34,237.14,1118.2,235.58z"/>
<path class="st2" d="M1488.38,245c-12.5-7.55-29.23-11.38-49.74-11.38c-10.5,0-20.58,1.37-29.97,4.07
	c-9.32,2.68-18.05,6.24-25.95,10.57c-7.9,4.33-15.09,9.33-21.37,14.84c-1.84,1.61-3.61,3.26-5.3,4.93
	c-2.36-4.29-5.1-8.14-8.19-11.49c-7.5-8.16-16.45-14.1-26.6-17.66c-9.95-3.48-20.98-5.25-32.79-5.25c-10.98,0-21.29,1.3-30.66,3.87
	c-9.33,2.56-17.9,6-25.47,10.23c-5.75,3.22-11.09,6.85-15.93,10.85l-0.87-21.24h-64.7v205.74h68.21V330.73
	c0-4.04,1.05-8.24,3.11-12.48c2.13-4.37,5.28-8.61,9.38-12.58c4.09-3.97,8.99-7.26,14.59-9.78c5.5-2.47,11.74-3.72,18.55-3.72
	c9.17,0,16.7,1.53,22.39,4.53c5.6,2.97,9.65,6.95,12.37,12.17c2.77,5.32,4.17,11.67,4.17,18.88v115.32h68.21V335.56
	c0-6.03,1.24-11.68,3.68-16.78c2.46-5.14,6.04-9.74,10.66-13.68c4.67-3.99,10.19-7.18,16.39-9.48c6.19-2.29,13.08-3.46,20.48-3.46
	c7.87,0,14.42,1.5,19.44,4.45c4.96,2.91,8.48,6.84,10.74,12c2.36,5.39,3.55,11.95,3.55,19.51v114.95h68.21V320.69
	c0-16.12-2.93-30.95-8.72-44.06C1510.34,263.25,1500.97,252.61,1488.38,245z"/>
<path class="st2" d="M1728.51,237.34v18.45c-2.46-1.91-5.09-3.75-7.89-5.53c-8.1-5.15-17.6-9.31-28.22-12.38
	c-10.61-3.07-22.32-4.62-34.8-4.62c-21.68,0-40.99,4.62-57.41,13.72c-16.45,9.12-29.55,21.9-38.94,37.98
	c-9.38,16.07-14.14,34.72-14.14,55.45c0,20.23,4.63,38.56,13.75,54.49c9.13,15.96,22.05,28.68,38.39,37.81
	c16.29,9.11,35.55,13.73,57.24,13.73c11.75,0,23.04-1.62,33.56-4.83c10.5-3.2,19.93-7.5,28.01-12.76c3.33-2.17,6.45-4.46,9.33-6.85
	v21.09h68.58V237.34H1728.51z M1621.68,315.24c4.76-7.03,11.46-12.68,19.92-16.8c8.56-4.16,18.82-6.27,30.51-6.27
	c11.93,0,22.25,2.11,30.67,6.26c8.33,4.11,14.9,9.75,19.55,16.77c4.6,6.95,6.93,15.43,6.93,25.19c0,9.29-2.34,17.59-6.94,24.67
	c-4.63,7.12-11.19,12.74-19.49,16.72c-8.43,4.04-18.76,6.09-30.71,6.09c-11.71,0-21.99-2.05-30.55-6.1
	c-8.43-3.98-15.11-9.62-19.86-16.75c-4.71-7.07-7.1-15.35-7.1-24.63C1614.59,330.64,1616.97,322.17,1621.68,315.24z"/>
<g>
	
		<linearGradient id="SVGID_00000001644769169670780970000004860406772935108786_" gradientUnits="userSpaceOnUse" x1="221.4887" y1="239.6296" x2="220.2458" y2="132.7421">
		<stop  offset="0" style="stop-color:#183562"/>
		<stop  offset="0.0372" style="stop-color:#154479"/>
		<stop  offset="0.1169" style="stop-color:#1061A6"/>
		<stop  offset="0.1938" style="stop-color:#0C78C9"/>
		<stop  offset="0.2659" style="stop-color:#0888E2"/>
		<stop  offset="0.3316" style="stop-color:#0792F1"/>
		<stop  offset="0.3849" style="stop-color:#0695F6"/>
		<stop  offset="0.631" style="stop-color:#1B9DC9"/>
		<stop  offset="0.8576" style="stop-color:#2CA4A6"/>
		<stop  offset="0.9793" style="stop-color:#32A699"/>
	</linearGradient>
	<path style="fill:url(#SVGID_00000001644769169670780970000004860406772935108786_);" d="M220.78,128.9
		c-27.31,0-49.44,22.14-49.44,49.44s22.14,49.44,49.44,49.44s49.44-22.14,49.44-49.44S248.08,128.9,220.78,128.9z M220.78,195.79
		c-9.64,0-17.45-7.81-17.45-17.45c0-9.64,7.81-17.45,17.45-17.45s17.45,7.81,17.45,17.45C238.22,187.98,230.41,195.79,220.78,195.79
		z"/>
</g>
<rect x="188.55" y="237.27" class="st2" width="64.84" height="205.86"/>
</svg>
